<svg width="55" height="67" viewBox="0 0 55 67" fill="none" xmlns="http://www.w3.org/2000/svg">
<path d="M44.5899 66.92C38.5699 66.92 33.5999 65.6366 29.6799 63.07C25.7599 60.5033 22.8199 57.26 20.8599 53.34C16.7065 52.64 13.0432 51.1233 9.86986 48.79C6.74319 46.4566 4.31652 43.4233 2.58986 39.69C0.863191 35.91 -0.000142872 31.5466 -0.000142872 26.6C-0.000142872 20.9533 1.07319 16.17 3.21986 12.25C5.41319 8.28331 8.42319 5.24997 12.2499 3.14997C16.1232 1.04997 20.5799 -2.82526e-05 25.6199 -2.82526e-05C30.6132 -2.82526e-05 35.0465 1.04997 38.9199 3.14997C42.7932 5.24997 45.8265 8.28331 48.0199 12.25C50.2132 16.17 51.3099 20.9533 51.3099 26.6C51.3099 31.3133 50.4932 35.5133 48.8599 39.2C47.2732 42.8866 45.0332 45.8966 42.1399 48.23C39.2465 50.5633 35.8399 52.15 31.9199 52.99C32.8065 54.2966 33.9965 55.37 35.4899 56.21C36.9832 57.05 38.6399 57.6566 40.4599 58.03C42.3265 58.45 44.1465 58.66 45.9199 58.66C47.2732 58.66 48.4865 58.5433 49.5599 58.31C50.6799 58.0766 51.6599 57.82 52.4999 57.54L54.4599 65.17C53.4332 65.6366 52.0799 66.0333 50.3999 66.36C48.7199 66.7333 46.7832 66.92 44.5899 66.92ZM25.6199 45.36C28.6532 45.36 31.2899 44.6133 33.5299 43.12C35.8165 41.58 37.5899 39.4333 38.8499 36.68C40.1099 33.88 40.7399 30.52 40.7399 26.6C40.7399 22.9133 40.1099 19.74 38.8499 17.08C37.5899 14.42 35.8165 12.39 33.5299 10.99C31.2899 9.58997 28.6532 8.88997 25.6199 8.88997C22.5865 8.88997 19.9265 9.61331 17.6399 11.06C15.3999 12.46 13.6499 14.49 12.3899 17.15C11.1765 19.7633 10.5699 22.9133 10.5699 26.6C10.5699 30.52 11.1765 33.88 12.3899 36.68C13.6499 39.4333 15.3999 41.58 17.6399 43.12C19.9265 44.6133 22.5865 45.36 25.6199 45.36Z" fill="#FCB568"/>
</svg>
